<?xml version="1.0" standalone="no"?>
<!DOCTYPE svg PUBLIC "-//W3C//DTD SVG 20010904//EN"
 "http://www.w3.org/TR/2001/REC-SVG-20010904/DTD/svg10.dtd">
<svg version="1.0" xmlns="http://www.w3.org/2000/svg"
 width="496.000000pt" height="503.000000pt" viewBox="0 0 496.000000 503.000000"
 preserveAspectRatio="xMidYMid meet">

<g transform="translate(0.000000,503.000000) scale(0.100000,-0.100000)"
fill="#fa452f" stroke="none">
<path d="M2245 4899 c-233 -24 -509 -101 -735 -204 -481 -221 -877 -597 -1124
-1066 -98 -187 -186 -431 -222 -615 -8 -42 -16 -79 -18 -83 -2 -3 -12 -92 -21
-196 -15 -162 -15 -214 -6 -350 12 -163 15 -184 51 -363 102 -505 415 -1009
835 -1345 458 -367 995 -545 1582 -524 536 19 1015 202 1439 548 77 63 255
241 309 309 280 354 445 706 511 1090 30 180 34 221 34 425 0 213 -18 368 -65
578 -48 215 -167 489 -308 709 -97 150 -156 225 -292 366 -359 373 -815 613
-1335 702 -144 25 -484 35 -635 19z m542 -325 c183 -29 386 -84 503 -136 287
-130 447 -236 648 -432 325 -317 515 -677 599 -1134 26 -138 26 -546 0 -682
-35 -185 -58 -272 -107 -397 -93 -235 -211 -430 -382 -628 -86 -100 -87 -102
-210 -207 -144 -123 -389 -276 -523 -326 -16 -6 -55 -21 -85 -32 -364 -139
-781 -168 -1180 -84 -142 31 -346 103 -484 173 -522 265 -894 718 -1055 1286
-67 235 -91 472 -72 694 32 363 111 618 286 916 274 468 757 826 1285 951 225
54 573 71 777 38z"/>
<path d="M1482 3719 c-239 -35 -440 -204 -497 -420 -22 -82 -19 -236 5 -312
45 -135 139 -273 292 -429 287 -291 800 -619 1061 -678 170 -39 361 -13 512
70 l50 28 164 -54 c91 -30 170 -54 177 -54 26 0 38 -35 46 -138 10 -126 -4
-279 -33 -358 -42 -112 -140 -183 -234 -171 -109 15 -192 94 -215 205 -13 58
-25 64 -65 30 -40 -36 -55 -90 -40 -152 40 -173 193 -279 377 -262 97 9 168
44 244 120 113 113 175 291 191 543 l6 102 211 -6 c225 -6 334 3 461 38 100
27 173 56 155 62 -8 3 -90 10 -182 16 -345 24 -688 100 -958 212 -56 23 -104
49 -107 56 -6 16 61 166 77 171 5 2 19 -16 29 -41 19 -44 20 -45 133 -86 62
-22 119 -41 126 -41 23 0 16 46 -48 310 -42 170 -65 253 -79 278 l-12 22 -272
-2 -272 -3 0 -49 0 -49 130 -47 130 -46 -2 -39 c-5 -74 -61 -211 -124 -305
-69 -101 -186 -159 -338 -167 -378 -20 -631 270 -631 724 0 244 91 460 260
616 74 69 127 101 223 135 63 22 89 25 207 26 140 1 185 -9 264 -55 71 -43
166 -162 166 -209 0 -6 39 -10 100 -10 55 0 100 4 100 9 0 19 -46 119 -74 161
-76 113 -208 206 -340 240 -75 19 -108 20 -695 19 -339 -1 -644 -6 -679 -10z"/>
<path d="M3623 2308 c4 -18 9 -56 13 -84 3 -28 10 -58 15 -65 11 -19 359 -19
439 -1 102 24 229 65 225 72 -2 4 -46 10 -97 14 -164 12 -367 41 -488 71 -124
29 -113 30 -107 -7z"/>
</g>
</svg>
